PathFileType	4	(X/Y/Z)	F:\MotionCapture\20160217\3\Generated_files\EMG_test03-Dynamic.trc
DataRate	CameraRate	NumFrames	NumMarkers	Units	OrigDataRate	OrigDataStartFrame	OrigNumFrames
120.00	120.00	       4	39	mm	120.00	555	       739
Frame#	Time	Top.Head			Front.Head			Rear.Head			R.Shoulder			R.Offset			R.Elbow			R.Wrist			L.Shoulder			L.Elbow			L.Wrist			R.ASIS			L.ASIS			V.Sacral			R.Thigh			R.Knee			R.Shank			R.Ankle			R.Heel			R.Toe			L.Thigh			L.Knee			L.Shank			L.Ankle			L.Heel			L.Toe			R1			R2			R3			R4			R5			R6			R7			L1			L2			L3			L4			L5			L6			L7			V_Mid_ASIS			V_Pelvis_Origin			V_R.Hip_JC			V_L.Hip_JC			V_R.Knee_JC			V_L.Knee_JC			V_R.Ankle_JC			V_L.Ankle_JC			V_Mid_Hip			V_Mid_Shoulder			V_R.Hand			V_L.Hand			V_R.Toe_Offset_Static			V_L.Toe_Offset_Static			V_R.Toe_Offset			V_L.Toe_Offset			
		X1	Y1	Z1	X2	Y2	Z2	X3	Y3	Z3	X4	Y4	Z4	X5	Y5	Z5	X6	Y6	Z6	X7	Y7	Z7	X8	Y8	Z8	X9	Y9	Z9	X10	Y10	Z10	X11	Y11	Z11	X12	Y12	Z12	X13	Y13	Z13	X14	Y14	Z14	X15	Y15	Z15	X16	Y16	Z16	X17	Y17	Z17	X18	Y18	Z18	X19	Y19	Z19	X20	Y20	Z20	X21	Y21	Z21	X22	Y22	Z22	X23	Y23	Z23	X24	Y24	Z24	X25	Y25	Z25	X26	Y26	Z26	X27	Y27	Z27	X28	Y28	Z28	X29	Y29	Z29	X30	Y30	Z30	X31	Y31	Z31	X32	Y32	Z32	X33	Y33	Z33	X34	Y34	Z34	X35	Y35	Z35	X36	Y36	Z36	X37	Y37	Z37	X38	Y38	Z38	X39	Y39	Z39	

555	4.617	1176.40625	36.39203	1717.38831	1288.05212	27.98551	1635.13721	1069.77454	52.38972	1647.11133	1121.60925	-156.27441	1411.70190	1004.98254	116.34291	1259.23218	1110.88721	-273.49313	1091.82410	1305.05994	-279.59781	914.33734	1157.45667	251.33080	1406.00952	1087.07397	355.18796	1095.76416	1128.12793	370.79617	839.89954	1189.46289	-108.98972	924.96619	1238.92957	174.74759	942.17761	993.93933	79.92226	927.01093	1238.24573	-102.15573	546.31219	1143.61975	-131.29359	443.23322	982.39734	-32.06297	281.91409	803.52924	-60.52282	235.13625	781.21698	20.94716	276.90149	812.75903	-60.09223	85.45867	1330.58582	117.05858	645.84229	1287.02808	174.14693	469.36411	1297.44556	91.02003	331.69415	1243.53857	149.67885	62.97625	1174.40833	96.59119	45.36143	1383.66125	132.83032	44.47961	835.55084	-55.06507	48.30054	831.32129	-27.57024	79.31622	836.53668	16.11942	169.35703	804.19061	38.50904	231.12804	770.69000	-26.65973	254.06873	773.84088	-66.55704	183.21007	781.89203	-86.11430	118.61156	1423.39343	104.31017	37.53867	1392.68726	92.24626	47.64094	1294.84058	55.40276	52.19054	1211.14807	61.90823	46.17122	1205.40417	135.06866	42.26635	1277.90100	157.57951	36.21106	1343.89160	166.71980	41.87865	
556	4.625	1187.60205	36.30726	1719.71167	1298.99963	27.65933	1637.25488	1081.09619	52.05690	1649.62683	1132.31982	-156.52977	1413.58118	1016.19019	117.30128	1261.47705	1119.31860	-271.94296	1093.09534	1308.33521	-278.65970	909.66583	1169.87000	250.81863	1408.76099	1103.86560	355.35138	1096.73694	1151.59631	369.38620	842.11279	1200.62866	-108.60269	927.64001	1249.25891	175.39612	943.59985	1004.93634	80.06961	929.31647	1257.12012	-102.31093	551.00104	1165.48035	-132.04750	446.15436	1005.02325	-32.73954	284.69418	826.20618	-60.53657	236.45076	799.61572	20.74085	277.22238	841.91016	-60.32208	87.52240	1336.53430	117.02418	644.91461	1290.86609	174.84419	468.91669	1300.10669	91.36258	331.60132	1243.45154	149.72371	62.94262	1174.38599	96.64886	45.44223	1383.78113	132.85094	44.41533	865.66467	-58.12196	51.05546	860.22168	-29.02337	82.29415	860.40521	16.47165	172.01044	823.97534	39.47507	232.47583	791.90894	-26.61574	253.98468	800.61743	-67.90606	184.11893	811.03638	-87.42540	119.16559	1423.50427	104.43035	37.40673	1392.73120	92.25786	47.58258	1294.92834	55.52028	52.03471	1211.47534	61.49118	46.31335	1205.56445	134.64896	41.97322	1277.86926	157.60207	36.18661	1343.84680	166.89287	41.75086	
557	4.633	1198.94629	35.88446	1721.41492	1310.54102	27.56283	1638.94495	1092.35364	51.72920	1651.77356	1142.89160	-156.67812	1415.75525	1027.57910	117.82008	1263.90784	1127.58411	-270.65570	1094.40149	1310.81799	-277.89755	905.07568	1181.71997	250.31787	1410.96521	1120.96936	355.97708	1097.76428	1175.78625	368.46286	844.65948	1211.54309	-107.71693	929.95740	1259.80371	176.23099	945.08362	1015.50464	80.48207	931.83856	1275.73962	-101.87122	555.81866	1186.10498	-132.86752	449.45322	1027.15881	-31.43703	287.03729	849.16028	-60.72536	237.14771	818.28491	20.37558	276.52612	876.31573	-64.41513	91.67422	1342.81934	117.07736	643.93365	1293.91577	174.98431	468.67215	1302.00769	91.31065	331.29602	1243.16638	148.81557	62.58217	1174.42590	96.68595	45.61637	1383.89221	132.81932	44.37788	897.08215	-58.96194	52.13336	892.15283	-31.77190	85.59853	885.17926	16.49123	173.80411	846.55511	38.48390	231.99628	814.58990	-27.56208	253.26114	826.19312	-68.35136	182.98183	841.29950	-88.29436	119.13347	1423.39526	105.10082	37.12618	1392.86987	92.23721	47.51152	1295.03137	55.55410	51.90009	1211.56470	61.56709	46.47723	1205.62427	134.66234	42.07186	1278.95178	157.08493	36.73380	1343.84656	167.04312	41.71029																																																	1399.64319	120.35250	47.10125	874.11566	-78.47560	106.32455	
558	4.642	1210.42407	35.75123	1723.62585	1321.83801	27.13417	1640.88110	1104.14478	51.22438	1653.64746	1153.20288	-156.85094	1416.67664	1038.79834	118.37139	1266.52808	1135.62341	-269.90927	1096.01428	1313.54553	-277.30164	900.78699	1193.44031	250.19298	1413.32129	1137.35535	356.48441	1098.79028	1200.29712	367.60648	847.61084	1222.45959	-107.23338	932.27710	1269.83667	176.85368	946.35052	1025.73279	80.16336	934.20758	1294.43823	-101.58271	560.52203	1206.71826	-132.99373	452.66977	1047.67004	-30.99656	288.37396	872.84827	-60.78284	237.56163	839.13385	19.96609	274.24884	906.57275	-63.82065	91.74592	1349.03589	117.73187	642.85120	1296.16882	175.27077	468.54050	1303.90759	91.72311	331.21274	1243.18738	148.84079	62.68166	1174.98804	96.20515	45.82733	1383.90222	132.81430	44.31449	929.29858	-58.36236	52.45448	922.53864	-31.78690	86.55196	910.44366	16.65442	174.81807	869.18762	37.66255	231.15581	837.43555	-28.40592	251.02316	852.18860	-68.99409	180.98361	871.08612	-89.37383	118.66337	1423.69690	104.50649	37.10712	1392.96912	92.24831	47.40429	1295.15588	55.51376	51.77154	1211.57544	61.57399	46.56256	1205.64563	134.71793	42.20351	1279.04211	157.18156	36.76561	1343.86938	167.13713	41.67087	
